<?xml version="1.0" encoding="UTF-8"?>
<!DOCTYPE svg PUBLIC "-//W3C//DTD SVG 1.1//EN" "http://www.w3.org/Graphics/SVG/1.1/DTD/svg11.dtd">
<svg xmlns="http://www.w3.org/2000/svg" xml:space="preserve" width="100%" height="100%" version="1.1" style="shape-rendering:geometricPrecision; text-rendering:geometricPrecision; image-rendering:optimizeQuality; fill-rule:evenodd; clip-rule:evenodd"
viewBox="0 0 49988.6 49988.6"
 xmlns:xlink="http://www.w3.org/1999/xlink"
 xmlns:xodm="http://www.corel.com/coreldraw/odm/2003">
 <defs>
  <style type="text/css">
   <![CDATA[
    .str0 {stroke:#B521C5;stroke-width:211.67;stroke-miterlimit:8}
    .fil1 {fill:none}
    .fil2 {fill:#FF3BB0}
    .fil0 {fill:#FF9900}
   ]]>
  </style>
 </defs>
 <g id="Фон">
  <metadata id="CorelCorpID_0Corel-Layer"/>
  <polygon class="fil0" points="31201.33,506.63 31201.33,6597.23 25110.72,506.63 "/>
  <polygon class="fil1 str0" points="31201.33,506.63 31201.33,6597.23 25110.72,506.63 "/>
  <line class="fil1 str0" x1="31191.3" y1="12687.86" x2="19016.9" y2= "24867.57" />
  <line class="fil1 str0" x1="31190.14" y1="24865.85" x2="19010.42" y2= "24865.85" />
  <line class="fil1 str0" x1="31191.67" y1="12687.86" x2="31191.67" y2= "24867.57" />
  <line class="fil1 str0" x1="31191.3" y1="24865.85" x2="19016.9" y2= "37045.56" />
  <line class="fil1 str0" x1="19010.45" y1="24865.85" x2="19010.45" y2= "37045.56" />
  <line class="fil1 str0" x1="25100.3" y1="18777.71" x2="19010.43" y2= "12687.84" />
  <line class="fil1 str0" x1="31190.91" y1="37046.31" x2="25101.04" y2= "30956.45" />
  <line class="fil1 str0" x1="12923.05" y1="43136.92" x2="19012.91" y2= "37047.06" />
  <line class="fil1 str0" x1="31191.67" y1="12687.1" x2="37281.51" y2= "6597.23" />
  <line class="fil1 str0" x1="12922.29" y1="49224.3" x2="6832.44" y2= "43134.45" />
  <line class="fil1 str0" x1="43372.12" y1="6596.49" x2="37282.26" y2= "506.63" />
  <line class="fil1 str0" x1="12923.05" y1="12687.1" x2="19012.91" y2= "6597.23" />
  <line class="fil1 str0" x1="31191.67" y1="43136.92" x2="37281.51" y2= "37047.06" />
  <line class="fil1 str0" x1="12923.05" y1="43134.47" x2="12923.05" y2= "49224.32" />
  <line class="fil1 str0" x1="31191.67" y1="37047.07" x2="31191.67" y2= "43136.92" />
  <line class="fil1 str0" x1="19010.45" y1="6597.23" x2="19010.45" y2= "12687.1" />
  <line class="fil1 str0" x1="37282.28" y1="506.64" x2="37282.28" y2= "6596.49" />
  <line class="fil1 str0" x1="43372.12" y1="6597.23" x2="37282.26" y2= "6597.23" />
  <line class="fil1 str0" x1="19012.9" y1="12687.86" x2="12923.05" y2= "12687.86" />
  <line class="fil1 str0" x1="37281.51" y1="37047.07" x2="31191.65" y2= "37047.07" />
  <line class="fil1 str0" x1="12922.3" y1="43134.47" x2="6832.44" y2= "43134.47" />
  <line class="fil1 str0" x1="25097.07" y1="49224.3" x2="19007.2" y2= "43134.45" />
  <line class="fil1 str0" x1="19007.22" y1="43134.47" x2="19030.7" y2= "49224.32" />
  <line class="fil1 str0" x1="25097.07" y1="49225.08" x2="19007.22" y2= "49225.08" />
  <line class="fil1 str0" x1="19007.22" y1="37047.07" x2="19007.22" y2= "43136.92" />
  <line class="fil1 str0" x1="31189.75" y1="6596.52" x2="25110.74" y2= "506.66" />
  <line class="fil1 str0" x1="31191.67" y1="506.64" x2="31191.67" y2= "6596.49" />
  <line class="fil1 str0" x1="31189.73" y1="506.64" x2="25094.62" y2= "506.64" />
  <line class="fil1 str0" x1="31194.89" y1="6597.23" x2="31194.89" y2= "12687.1" />
  <line class="fil1 str0" x1="12922.29" y1="37030.2" x2="6832.44" y2= "30940.34" />
  <line class="fil1 str0" x1="6832.44" y1="30940.35" x2="6855.92" y2= "37030.2" />
  <line class="fil1 str0" x1="12922.3" y1="37030.96" x2="6832.44" y2= "37030.96" />
  <line class="fil1 str0" x1="18993.56" y1="37030.96" x2="12903.71" y2= "37030.96" />
  <line class="fil1 str0" x1="12925.52" y1="24881.2" x2="6835.65" y2= "18791.35" />
  <line class="fil1 str0" x1="6835.67" y1="18791.35" x2="6859.14" y2= "24881.21" />
  <line class="fil1 str0" x1="12925.52" y1="24881.97" x2="6835.67" y2= "24881.97" />
  <line class="fil1 str0" x1="18996.79" y1="24881.97" x2="12906.93" y2= "24881.97" />
  <line class="fil1 str0" x1="43346.33" y1="18777.71" x2="37256.49" y2= "12687.84" />
  <line class="fil1 str0" x1="43305.21" y1="12687.86" x2="43344.37" y2= "18777.71" />
  <line class="fil1 str0" x1="43310.89" y1="12687.86" x2="37221.04" y2= "12687.86" />
  <line class="fil1 str0" x1="37281.51" y1="12687.86" x2="31191.65" y2= "12687.86" />
  <line class="fil1 str0" x1="43378.56" y1="30971.81" x2="37288.7" y2= "24881.96" />
  <line class="fil1 str0" x1="43340.66" y1="24881.97" x2="43379.81" y2= "30971.82" />
  <line class="fil1 str0" x1="43346.35" y1="24881.97" x2="37256.5" y2= "24881.97" />
  <line class="fil1 str0" x1="37316.96" y1="24881.97" x2="31227.09" y2= "24881.97" />
  <polygon class="fil0" points="43350.32,12687.86 43350.32,18778.47 37259.71,12687.86 "/>
  <polygon class="fil1 str0" points="43350.32,12687.86 43350.32,18778.47 37259.71,12687.86 "/>
  <polygon class="fil0" points="12926.28,43137.68 12926.28,49228.29 6835.67,43137.68 "/>
  <polygon class="fil1 str0" points="12926.28,43137.68 12926.28,49228.29 6835.67,43137.68 "/>
  <polygon class="fil0" points="6829.23,24875.52 6829.23,18788.14 12919.84,24875.52 "/>
  <polygon class="fil1 str0" points="6829.23,24875.52 6829.23,18788.14 12919.84,24875.52 "/>
  <polygon class="fil0" points="31191.65,37043.84 37282.26,37043.84 31191.65,43134.45 "/>
  <polygon class="fil1 str0" points="31191.65,37043.84 37282.26,37043.84 31191.65,43134.45 "/>
  <polygon class="fil0" points="19029.78,24881.97 31207.77,24881.97 19029.78,37059.97 "/>
  <polygon class="fil1 str0" points="19029.77,24881.97 31207.77,24881.97 19029.77,37059.97 "/>
  <polygon class="fil2" points="31175.56,24881.97 18997.55,24881.97 31175.56,12700.74 "/>
  <polygon class="fil1 str0" points="31175.56,24881.97 18997.55,24881.97 31175.56,12700.74 "/>
  <polygon class="fil2" points="19010.45,12691.07 12919.84,12691.07 19010.45,6600.46 "/>
  <polygon class="fil1 str0" points="19010.45,12691.09 12919.84,12691.09 19010.45,6600.48 "/>
  <polygon class="fil2" points="37279.05,6597.25 37279.05,506.64 43369.66,6597.25 "/>
  <polygon class="fil1 str0" points="37279.05,6597.25 37279.05,506.64 43369.66,6597.25 "/>
  <polygon class="fil2" points="43379.33,24875.52 43379.33,30966.13 37288.72,24875.52 "/>
  <polygon class="fil1 str0" points="43379.33,24875.52 43379.33,30966.13 37288.72,24875.52 "/>
  <polygon class="fil2" points="6832.44,37024.52 6832.44,30937.13 12923.05,37024.52 "/>
  <polygon class="fil1 str0" points="6832.44,37024.52 6832.44,30937.13 12923.05,37024.52 "/>
  <polygon class="fil2" points="19013.66,49221.83 19013.66,43131.23 25104.28,49221.83 "/>
  <polygon class="fil1 str0" points="19013.66,49221.83 19013.66,43131.23 25104.28,49221.83 "/>
 </g>
</svg>
