<?xml version="1.0" encoding="UTF-8"?>
<!DOCTYPE svg PUBLIC "-//W3C//DTD SVG 1.1//EN" "http://www.w3.org/Graphics/SVG/1.1/DTD/svg11.dtd">
<!-- Creator: CorelDRAW -->
<svg xmlns="http://www.w3.org/2000/svg" xml:space="preserve" width="499.886mm" height="499.886mm" version="1.1" style="shape-rendering:geometricPrecision; text-rendering:geometricPrecision; image-rendering:optimizeQuality; fill-rule:evenodd; clip-rule:evenodd"
viewBox="0 0 49988.6 49988.6"
 xmlns:xlink="http://www.w3.org/1999/xlink"
 xmlns:xodm="http://www.corel.com/coreldraw/odm/2003">
 <defs>
  <style type="text/css">
   <![CDATA[
    .str0 {stroke:#BB22CC;stroke-width:52.92;stroke-miterlimit:8}
    .fil1 {fill:none}
    .fil2 {fill:#FF3BB0}
    .fil0 {fill:#FF9900}
   ]]>
  </style>
 </defs>
 <g id="Фон">
  <metadata id="CorelCorpID_0Corel-Layer"/>
  <polygon class="fil0" points="29001.5,8998.29 29001.5,12998.79 25001,8998.29 "/>
  <polygon class="fil1 str0" points="29001.5,8998.29 29001.5,12998.79 25001,8998.29 "/>
  <line class="fil1 str0" x1="29005.5" y1="16999.3" x2="21008.98" y2= "24999.31" />
  <line class="fil1 str0" x1="29004.73" y1="24998.18" x2="21004.72" y2= "24998.18" />
  <line class="fil1 str0" x1="29005.74" y1="16999.3" x2="29005.74" y2= "24999.31" />
  <line class="fil1 str0" x1="29005.5" y1="24998.18" x2="21008.98" y2= "32998.19" />
  <line class="fil1 str0" x1="21004.74" y1="24998.18" x2="21004.74" y2= "32998.19" />
  <line class="fil1 str0" x1="25004.74" y1="20999.3" x2="21004.73" y2= "16999.29" />
  <line class="fil1 str0" x1="29005.24" y1="32998.68" x2="25005.23" y2= "28998.67" />
  <line class="fil1 str0" x1="17006.35" y1="36999.18" x2="21006.36" y2= "32999.17" />
  <line class="fil1 str0" x1="29005.74" y1="16998.8" x2="33005.74" y2= "12998.79" />
  <line class="fil1 str0" x1="17005.85" y1="40997.56" x2="13005.85" y2= "36997.55" />
  <line class="fil1 str0" x1="37006.24" y1="12998.3" x2="33006.23" y2= "8998.29" />
  <line class="fil1 str0" x1="17006.35" y1="16998.8" x2="21006.36" y2= "12998.79" />
  <line class="fil1 str0" x1="29005.74" y1="36999.18" x2="33005.74" y2= "32999.17" />
  <line class="fil1 str0" x1="17006.35" y1="36997.56" x2="17006.35" y2= "40997.57" />
  <line class="fil1 str0" x1="29005.74" y1="32999.18" x2="29005.74" y2= "36999.19" />
  <line class="fil1 str0" x1="21004.74" y1="12998.8" x2="21004.74" y2= "16998.8" />
  <line class="fil1 str0" x1="33006.24" y1="8998.29" x2="33006.24" y2= "12998.3" />
  <line class="fil1 str0" x1="37006.24" y1="12998.8" x2="33006.24" y2= "12998.8" />
  <line class="fil1 str0" x1="21006.36" y1="16999.3" x2="17006.35" y2= "16999.3" />
  <line class="fil1 str0" x1="33005.74" y1="32999.18" x2="29005.73" y2= "32999.18" />
  <line class="fil1 str0" x1="17005.86" y1="36997.56" x2="13005.85" y2= "36997.56" />
  <line class="fil1 str0" x1="25002.62" y1="40997.56" x2="21002.61" y2= "36997.55" />
  <line class="fil1 str0" x1="21002.62" y1="36997.56" x2="21018.04" y2= "40997.57" />
  <line class="fil1 str0" x1="25002.62" y1="40998.06" x2="21002.61" y2= "40998.06" />
  <line class="fil1 str0" x1="21002.62" y1="32999.18" x2="21002.62" y2= "36999.19" />
  <line class="fil1 str0" x1="29004.47" y1="12998.31" x2="25001.01" y2= "8998.31" />
  <line class="fil1 str0" x1="29005.74" y1="8998.29" x2="29005.74" y2= "12998.3" />
  <line class="fil1 str0" x1="29004.47" y1="8998.29" x2="25001.01" y2= "8998.29" />
  <line class="fil1 str0" x1="29007.85" y1="12998.8" x2="29007.85" y2= "16998.8" />
  <line class="fil1 str0" x1="17005.85" y1="32988.1" x2="13005.85" y2= "28988.09" />
  <line class="fil1 str0" x1="13005.85" y1="28988.1" x2="13021.27" y2= "32988.1" />
  <line class="fil1 str0" x1="17005.86" y1="32988.6" x2="13005.85" y2= "32988.6" />
  <line class="fil1 str0" x1="20993.65" y1="32988.6" x2="16993.65" y2= "32988.6" />
  <line class="fil1 str0" x1="17007.97" y1="25008.26" x2="13007.96" y2= "21008.26" />
  <line class="fil1 str0" x1="13007.97" y1="21008.26" x2="13023.39" y2= "25008.27" />
  <line class="fil1 str0" x1="17007.97" y1="25008.76" x2="13007.97" y2= "25008.76" />
  <line class="fil1 str0" x1="20995.77" y1="25008.76" x2="16995.76" y2= "25008.76" />
  <line class="fil1 str0" x1="36989.3" y1="20999.3" x2="32989.29" y2= "16999.29" />
  <line class="fil1 str0" x1="36962.29" y1="16999.3" x2="36988" y2= "20999.3" />
  <line class="fil1 str0" x1="36966.03" y1="16999.3" x2="32966.02" y2= "16999.3" />
  <line class="fil1 str0" x1="33005.74" y1="16999.3" x2="29005.73" y2= "16999.3" />
  <line class="fil1 str0" x1="37010.47" y1="29008.76" x2="33010.46" y2= "25008.76" />
  <line class="fil1 str0" x1="36985.57" y1="25008.76" x2="37011.29" y2= "29008.77" />
  <line class="fil1 str0" x1="36989.31" y1="25008.76" x2="32989.3" y2= "25008.76" />
  <line class="fil1 str0" x1="33029.02" y1="25008.76" x2="29029.01" y2= "25008.76" />
  <polygon class="fil0" points="36991.92,16999.29 36991.92,20999.79 32991.42,16999.29 "/>
  <polygon class="fil1 str0" points="36991.92,16999.29 36991.92,20999.79 32991.42,16999.29 "/>
  <polygon class="fil0" points="17008.47,36999.68 17008.47,41000.18 13007.97,36999.68 "/>
  <polygon class="fil1 str0" points="17008.47,36999.68 17008.47,41000.18 13007.97,36999.68 "/>
  <polygon class="fil0" points="13003.74,25004.53 13003.74,21006.15 17004.24,25004.53 "/>
  <polygon class="fil1 str0" points="13003.74,25004.53 13003.74,21006.15 17004.24,25004.53 "/>
  <polygon class="fil0" points="29005.74,32997.06 33006.24,32997.06 29005.74,36997.56 "/>
  <polygon class="fil1 str0" points="29005.74,32997.06 33006.24,32997.06 29005.74,36997.56 "/>
  <polygon class="fil0" points="21017.44,25008.76 29016.32,25008.76 21017.44,33007.65 "/>
  <polygon class="fil1 str0" points="21017.44,25008.76 29016.32,25008.76 21017.44,33007.65 "/>
  <polygon class="fil2" points="28995.15,25008.76 20996.27,25008.76 28995.15,17007.76 "/>
  <polygon class="fil1 str0" points="28995.15,25008.76 20996.27,25008.76 28995.15,17007.76 "/>
  <polygon class="fil2" points="21004.74,17001.41 17004.24,17001.41 21004.74,13000.91 "/>
  <polygon class="fil1 str0" points="21004.74,17001.41 17004.24,17001.41 21004.74,13000.91 "/>
  <polygon class="fil2" points="33004.12,12998.8 33004.12,8998.3 37004.62,12998.8 "/>
  <polygon class="fil1 str0" points="33004.12,12998.8 33004.12,8998.3 37004.62,12998.8 "/>
  <polygon class="fil2" points="37010.97,25004.53 37010.97,29005.03 33010.47,25004.53 "/>
  <polygon class="fil1 str0" points="37010.97,25004.53 37010.97,29005.03 33010.47,25004.53 "/>
  <polygon class="fil2" points="13005.85,32984.36 13005.85,28985.98 17006.35,32984.36 "/>
  <polygon class="fil1 str0" points="13005.85,32984.36 13005.85,28985.98 17006.35,32984.36 "/>
  <polygon class="fil2" points="20996.27,40985.36 20996.27,36984.86 24996.77,40985.36 "/>
  <polygon class="fil1 str0" points="20996.27,40985.36 20996.27,36984.86 24996.77,40985.36 "/>
 </g>
</svg>
