<?xml version="1.0" encoding="UTF-8"?>
<!DOCTYPE svg PUBLIC "-//W3C//DTD SVG 1.1//EN" "http://www.w3.org/Graphics/SVG/1.1/DTD/svg11.dtd">
<svg xmlns="http://www.w3.org/2000/svg" xml:space="preserve" width="100%" height="100%" version="1.1" style="shape-rendering:geometricPrecision; text-rendering:geometricPrecision; image-rendering:optimizeQuality; fill-rule:evenodd; clip-rule:evenodd"
viewBox="0 0 49988.6 49988.6"
 xmlns:xlink="http://www.w3.org/1999/xlink"
 xmlns:xodm="http://www.corel.com/coreldraw/odm/2003">
 <defs>
  <style type="text/css">
   <![CDATA[
    .str0 {stroke:#BB22CC;stroke-width:52.92;stroke-miterlimit:8}
    .fil1 {fill:none}
    .fil2 {fill:#FF3BB0}
    .fil0 {fill:#FF9900}
   ]]>
  </style>
 </defs>
 <g id="Фон">
  <metadata id="CorelCorpID_0Corel-Layer"/>
  <polygon class="fil0" points="30833.08,726.07 30833.08,6800.91 24758.25,726.07 "/>
  <polygon class="fil1 str0" points="30833.08,726.07 30833.08,6800.91 24758.25,726.07 "/>
  <line class="fil1 str0" x1="30839.16" y1="12875.76" x2="18696.29" y2= "25023.93" />
  <line class="fil1 str0" x1="30837.99" y1="25022.21" x2="18689.82" y2= "25022.21" />
  <line class="fil1 str0" x1="30839.52" y1="12875.76" x2="30839.52" y2= "25023.93" />
  <line class="fil1 str0" x1="30839.16" y1="25022.21" x2="18696.29" y2= "37170.38" />
  <line class="fil1 str0" x1="18689.85" y1="25022.21" x2="18689.85" y2= "37170.38" />
  <line class="fil1 str0" x1="24763.93" y1="18949.84" x2="18689.83" y2= "12875.74" />
  <line class="fil1 str0" x1="30838.76" y1="37171.13" x2="24764.67" y2= "31097.03" />
  <line class="fil1 str0" x1="12618.22" y1="43245.96" x2="18692.31" y2= "37171.87" />
  <line class="fil1 str0" x1="30839.52" y1="12875" x2="36913.6" y2= "6800.91" />
  <line class="fil1 str0" x1="12617.46" y1="49317.58" x2="6543.38" y2= "43243.49" />
  <line class="fil1 str0" x1="42988.44" y1="6800.16" x2="36914.34" y2= "726.07" />
  <line class="fil1 str0" x1="12618.22" y1="12875" x2="18692.31" y2= "6800.91" />
  <line class="fil1 str0" x1="30839.52" y1="43245.96" x2="36913.6" y2= "37171.87" />
  <line class="fil1 str0" x1="12618.22" y1="43243.5" x2="12618.22" y2= "49317.6" />
  <line class="fil1 str0" x1="30839.52" y1="37171.89" x2="30839.52" y2= "43245.98" />
  <line class="fil1 str0" x1="18689.85" y1="6800.92" x2="18689.85" y2= "12875" />
  <line class="fil1 str0" x1="36914.36" y1="726.07" x2="36914.36" y2= "6800.16" />
  <line class="fil1 str0" x1="42988.44" y1="6800.92" x2="36914.36" y2= "6800.92" />
  <line class="fil1 str0" x1="18692.31" y1="12875.76" x2="12618.22" y2= "12875.76" />
  <line class="fil1 str0" x1="36913.6" y1="37171.89" x2="30839.51" y2= "37171.89" />
  <line class="fil1 str0" x1="12617.47" y1="43243.5" x2="6543.38" y2= "43243.5" />
  <line class="fil1 str0" x1="24760.71" y1="49317.58" x2="18686.61" y2= "43243.49" />
  <line class="fil1 str0" x1="18686.63" y1="43243.5" x2="18710.05" y2= "49317.6" />
  <line class="fil1 str0" x1="24760.71" y1="49318.34" x2="18686.61" y2= "49318.34" />
  <line class="fil1 str0" x1="18686.63" y1="37171.89" x2="18686.63" y2= "43245.98" />
  <line class="fil1 str0" x1="30837.59" y1="6800.18" x2="24758.26" y2= "726.1" />
  <line class="fil1 str0" x1="30839.52" y1="726.07" x2="30839.52" y2= "6800.16" />
  <line class="fil1 str0" x1="30837.59" y1="726.07" x2="24758.26" y2= "726.07" />
  <line class="fil1 str0" x1="30842.73" y1="6800.92" x2="30842.73" y2= "12875" />
  <line class="fil1 str0" x1="12617.46" y1="37155.06" x2="6543.38" y2= "31080.97" />
  <line class="fil1 str0" x1="6543.38" y1="31080.98" x2="6566.79" y2= "37155.06" />
  <line class="fil1 str0" x1="12617.47" y1="37155.82" x2="6543.38" y2= "37155.82" />
  <line class="fil1 str0" x1="18673.01" y1="37155.82" x2="12598.93" y2= "37155.82" />
  <line class="fil1 str0" x1="12620.68" y1="25037.52" x2="6546.58" y2= "18963.44" />
  <line class="fil1 str0" x1="6546.6" y1="18963.44" x2="6570.01" y2= "25037.53" />
  <line class="fil1 str0" x1="12620.68" y1="25038.28" x2="6546.6" y2= "25038.28" />
  <line class="fil1 str0" x1="18676.23" y1="25038.28" x2="12602.14" y2= "25038.28" />
  <line class="fil1 str0" x1="42962.71" y1="18949.84" x2="36888.62" y2= "12875.74" />
  <line class="fil1 str0" x1="42921.7" y1="12875.76" x2="42960.74" y2= "18949.84" />
  <line class="fil1 str0" x1="42927.38" y1="12875.76" x2="36853.28" y2= "12875.76" />
  <line class="fil1 str0" x1="36913.6" y1="12875.76" x2="30839.51" y2= "12875.76" />
  <line class="fil1 str0" x1="42994.86" y1="31112.36" x2="36920.77" y2= "25038.28" />
  <line class="fil1 str0" x1="42957.05" y1="25038.28" x2="42996.11" y2= "31112.37" />
  <line class="fil1 str0" x1="42962.73" y1="25038.28" x2="36888.64" y2= "25038.28" />
  <line class="fil1 str0" x1="36948.95" y1="25038.28" x2="30874.86" y2= "25038.28" />
  <polygon class="fil0" points="42966.69,12875.74 42966.69,18950.58 36891.85,12875.74 "/>
  <polygon class="fil1 str0" points="42966.69,12875.74 42966.69,18950.58 36891.85,12875.74 "/>
  <polygon class="fil0" points="12621.44,43246.72 12621.44,49321.56 6546.6,43246.72 "/>
  <polygon class="fil1 str0" points="12621.44,43246.72 12621.44,49321.56 6546.6,43246.72 "/>
  <polygon class="fil0" points="6540.18,25031.86 6540.18,18960.24 12615.01,25031.86 "/>
  <polygon class="fil1 str0" points="6540.18,25031.86 6540.18,18960.24 12615.01,25031.86 "/>
  <polygon class="fil0" points="30839.52,37168.67 36914.36,37168.67 30839.52,43243.5 "/>
  <polygon class="fil1 str0" points="30839.52,37168.67 36914.36,37168.67 30839.52,43243.5 "/>
  <polygon class="fil0" points="18709.13,25038.28 30855.59,25038.28 18709.13,37184.75 "/>
  <polygon class="fil1 str0" points="18709.13,25038.28 30855.59,25038.28 18709.13,37184.75 "/>
  <polygon class="fil2" points="30823.44,25038.28 18676.99,25038.28 30823.44,12888.61 "/>
  <polygon class="fil1 str0" points="30823.44,25038.28 18676.99,25038.28 30823.44,12888.61 "/>
  <polygon class="fil2" points="18689.85,12878.96 12615.01,12878.96 18689.85,6804.13 "/>
  <polygon class="fil1 str0" points="18689.85,12878.96 12615.01,12878.96 18689.85,6804.13 "/>
  <polygon class="fil2" points="36911.14,6800.92 36911.14,726.09 42985.98,6800.92 "/>
  <polygon class="fil1 str0" points="36911.14,6800.92 36911.14,726.09 42985.98,6800.92 "/>
  <polygon class="fil2" points="42995.62,25031.86 42995.62,31106.69 36920.78,25031.86 "/>
  <polygon class="fil1 str0" points="42995.62,25031.86 42995.62,31106.69 36920.78,25031.86 "/>
  <polygon class="fil2" points="6543.38,37149.38 6543.38,31077.76 12618.22,37149.38 "/>
  <polygon class="fil1 str0" points="6543.38,37149.38 6543.38,31077.76 12618.22,37149.38 "/>
  <polygon class="fil2" points="18676.99,49299.06 18676.99,43224.22 24751.82,49299.06 "/>
  <polygon class="fil1 str0" points="18676.99,49299.06 18676.99,43224.22 24751.82,49299.06 "/>
 </g>
</svg>
